<?xml version="1.0" encoding="UTF-8"?>
<svg xmlns="http://www.w3.org/2000/svg" xmlns:xlink="http://www.w3.org/1999/xlink" width="14pt" height="13pt" viewBox="0 0 14 13" version="1.1">
<g id="surface1">
<path style=" stroke:none;fill-rule:nonzero;fill:rgb(100%,80%,0%);fill-opacity:1;" d="M 11.003906 12.867188 L 6.800781 10.667969 L 2.59375 12.867188 L 3.402344 8.21875 L 0 4.921875 L 4.703125 4.246094 L 6.808594 0.015625 L 8.90625 4.246094 L 13.605469 4.929688 L 10.203125 8.21875 Z M 11.003906 12.867188 "/>
<path style=" stroke:none;fill-rule:nonzero;fill:rgb(100%,90.196078%,50.196078%);fill-opacity:1;" d="M 8.917969 4.21875 C 6.792969 7.09375 6.769531 7.128906 6.769531 7.128906 L 13.59375 4.914062 Z M 8.917969 4.21875 "/>
<path style=" stroke:none;fill-rule:nonzero;fill:rgb(100%,86.666667%,33.333333%);fill-opacity:1;" d="M 6.808594 7.066406 L 6.808594 10.679688 L 2.554688 12.839844 Z M 6.808594 7.066406 "/>
<path style=" stroke:none;fill-rule:nonzero;fill:rgb(100%,86.666667%,33.333333%);fill-opacity:1;" d="M 6.808594 7.066406 L 10.980469 12.738281 L 10.199219 8.148438 Z M 6.808594 7.066406 "/>
<path style=" stroke:none;fill-rule:nonzero;fill:rgb(100%,90.196078%,50.196078%);fill-opacity:1;" d="M 0.0273438 4.917969 L 6.808594 7.066406 L 4.707031 4.226562 Z M 0.0273438 4.917969 "/>
<path style=" stroke:none;fill-rule:nonzero;fill:rgb(100%,86.666667%,33.333333%);fill-opacity:1;" d="M 6.808594 7.066406 L 6.808594 0.0234375 L 8.890625 4.222656 Z M 6.808594 7.066406 "/>
<path style=" stroke:none;fill-rule:nonzero;fill:rgb(100%,83.137255%,16.470588%);fill-opacity:1;" d="M 2.59375 12.785156 L 3.386719 8.15625 L 6.808594 7.066406 Z M 2.59375 12.785156 "/>
</g>
</svg>
